<svg xmlns="http://www.w3.org/2000/svg" width="605.862" height="65.892" viewBox="0 0 605.862 65.892"><path d="M21.238.82a3.01,3.01,0,0,1-2.214-.9,3.01,3.01,0,0,1-.9-2.214V-30.832L.41-59.532A3.183,3.183,0,0,1,.041-61.91,2.848,2.848,0,0,1,1.476-63.8a2.945,2.945,0,0,1,2.3-.369,2.905,2.905,0,0,1,1.886,1.353l15.58,25.256,15.5-25.256a2.905,2.905,0,0,1,1.886-1.353A3.183,3.183,0,0,1,41-63.8a2.905,2.905,0,0,1,1.353,1.886,3.183,3.183,0,0,1-.369,2.378l-17.712,28.7V-2.3a3.01,3.01,0,0,1-.9,2.214A2.915,2.915,0,0,1,21.238.82Zm45.1-28.864a2.847,2.847,0,0,1,2.091.861,2.847,2.847,0,0,1,.861,2.091v7.544a2.847,2.847,0,0,1-.861,2.091,2.847,2.847,0,0,1-2.091.861,2.847,2.847,0,0,1-2.091-.861,2.847,2.847,0,0,1-.861-2.091v-7.544a2.847,2.847,0,0,1,.861-2.091A2.847,2.847,0,0,1,66.338-28.044ZM83.394-42.066a2.783,2.783,0,0,1,.9-2.091,2.985,2.985,0,0,1,2.132-.861,2.847,2.847,0,0,1,2.091.861,2.847,2.847,0,0,1,.861,2.091V-2.05A2.847,2.847,0,0,1,88.519.041,2.847,2.847,0,0,1,86.428.9,2.985,2.985,0,0,1,84.3.041a2.783,2.783,0,0,1-.9-2.091V-6.724a9.368,9.368,0,0,1-.82.9,22.8,22.8,0,0,1-7.421,5A22.727,22.727,0,0,1,66.338.9,23.03,23.03,0,0,1,57.482-.82a22.686,22.686,0,0,1-7.462-5,22.51,22.51,0,0,1-4.92-7.339,23.636,23.636,0,0,1-1.8-8.733v-.328a23.311,23.311,0,0,1,1.8-8.692,22.63,22.63,0,0,1,4.92-7.3,22.686,22.686,0,0,1,7.462-5,23.03,23.03,0,0,1,8.856-1.722,22.727,22.727,0,0,1,8.815,1.722,22.8,22.8,0,0,1,7.421,5,2.115,2.115,0,0,1,.451.41q.2.246.369.41ZM66.338-5A16.5,16.5,0,0,0,72.98-6.355,17.328,17.328,0,0,0,78.392-10a17.328,17.328,0,0,0,3.649-5.412,16.5,16.5,0,0,0,1.353-6.642,16.207,16.207,0,0,0-1.353-6.6,17.462,17.462,0,0,0-3.649-5.371,17.328,17.328,0,0,0-5.412-3.649,16.5,16.5,0,0,0-6.642-1.353,16.9,16.9,0,0,0-6.519,1.271,17.523,17.523,0,0,0-5.412,3.485,16.965,16.965,0,0,0-3.731,5.207A15.977,15.977,0,0,0,49.2-22.632v.656a16.207,16.207,0,0,0,1.353,6.6A17.112,17.112,0,0,0,54.243-10,17.838,17.838,0,0,0,59.7-6.355,16.5,16.5,0,0,0,66.338-5Zm34.194-54.2a2.847,2.847,0,0,1,2.091.861,2.847,2.847,0,0,1,.861,2.091v35.178l1.558-1.394L128.576-44.2a2.6,2.6,0,0,1,2.091-.82,3.2,3.2,0,0,1,2.091.984,2.911,2.911,0,0,1,.779,2.132,2.789,2.789,0,0,1-.943,2.05L111.6-20.418,132.43-3.608a2.7,2.7,0,0,1,1.107,1.968,3.06,3.06,0,0,1-.615,2.214,3.293,3.293,0,0,1-2.378,1.066,2.823,2.823,0,0,1-1.8-.656L107.174-16.4l-3.69,3.444V-2.05a2.847,2.847,0,0,1-.861,2.091A2.847,2.847,0,0,1,100.532.9,2.847,2.847,0,0,1,98.441.041,2.847,2.847,0,0,1,97.58-2.05v-54.2a2.847,2.847,0,0,1,.861-2.091A2.847,2.847,0,0,1,100.532-59.2Zm41.492,14.186a2.847,2.847,0,0,1,2.091.861,2.847,2.847,0,0,1,.861,2.091V-2.132a2.847,2.847,0,0,1-.861,2.091,2.847,2.847,0,0,1-2.091.861,2.847,2.847,0,0,1-2.091-.861,2.847,2.847,0,0,1-.861-2.091V-42.066a2.847,2.847,0,0,1,.861-2.091A2.847,2.847,0,0,1,142.024-45.018ZM186.96.82a2.847,2.847,0,0,1-2.091-.861,2.847,2.847,0,0,1-.861-2.091V-23.78a14.663,14.663,0,0,0-1.23-5.986,15.914,15.914,0,0,0-3.321-4.879,15.914,15.914,0,0,0-4.879-3.321,14.663,14.663,0,0,0-5.986-1.23,15.1,15.1,0,0,0-5.986,1.189,15.335,15.335,0,0,0-4.879,3.28,15.914,15.914,0,0,0-3.321,4.879,14.663,14.663,0,0,0-1.23,5.986v21.73a2.847,2.847,0,0,1-.861,2.091,2.847,2.847,0,0,1-2.091.861,2.847,2.847,0,0,1-2.091-.861,2.847,2.847,0,0,1-.861-2.091V-23.78a21.183,21.183,0,0,1,1.6-8.2,21.107,21.107,0,0,1,4.633-6.888,20.991,20.991,0,0,1,6.929-4.633,21.278,21.278,0,0,1,8.159-1.6,21.183,21.183,0,0,1,8.2,1.6,21.108,21.108,0,0,1,6.888,4.633,21.107,21.107,0,0,1,4.633,6.888,21.183,21.183,0,0,1,1.6,8.2V-2.132a2.847,2.847,0,0,1-.861,2.091A2.847,2.847,0,0,1,186.96.82Zm32.308,0A23.03,23.03,0,0,1,210.412-.9a22.686,22.686,0,0,1-7.462-5,22.51,22.51,0,0,1-4.92-7.339,23.636,23.636,0,0,1-1.8-8.733V-22.3a23.442,23.442,0,0,1,1.8-8.651,22.51,22.51,0,0,1,4.92-7.339,22.686,22.686,0,0,1,7.462-5,23.03,23.03,0,0,1,8.856-1.722,2.847,2.847,0,0,1,2.091.861,2.847,2.847,0,0,1,.861,2.091,2.847,2.847,0,0,1-.861,2.091,2.847,2.847,0,0,1-2.091.861,16.5,16.5,0,0,0-6.642,1.353,17.838,17.838,0,0,0-5.453,3.649,17.112,17.112,0,0,0-3.69,5.371,16.207,16.207,0,0,0-1.353,6.6,16.5,16.5,0,0,0,1.353,6.642,16.984,16.984,0,0,0,3.69,5.412,17.838,17.838,0,0,0,5.453,3.649,16.5,16.5,0,0,0,6.642,1.353,16.5,16.5,0,0,0,6.642-1.353,17.328,17.328,0,0,0,5.412-3.649,17.328,17.328,0,0,0,3.649-5.412,16.5,16.5,0,0,0,1.353-6.642V-56.252a2.783,2.783,0,0,1,.9-2.091,2.985,2.985,0,0,1,2.132-.861,2.89,2.89,0,0,1,2.05.861,2.783,2.783,0,0,1,.9,2.091v34.276a23.636,23.636,0,0,1-1.8,8.733,21.915,21.915,0,0,1-5,7.339,22.8,22.8,0,0,1-7.421,5A22.727,22.727,0,0,1,219.268.82ZM271.42-28.044a2.847,2.847,0,0,1,2.091.861,2.847,2.847,0,0,1,.861,2.091v7.544a2.847,2.847,0,0,1-.861,2.091,2.847,2.847,0,0,1-2.091.861,2.847,2.847,0,0,1-2.091-.861,2.847,2.847,0,0,1-.861-2.091v-7.544a2.847,2.847,0,0,1,.861-2.091A2.847,2.847,0,0,1,271.42-28.044Zm17.056-14.022a2.783,2.783,0,0,1,.9-2.091,2.985,2.985,0,0,1,2.132-.861,2.847,2.847,0,0,1,2.091.861,2.847,2.847,0,0,1,.861,2.091V-2.05A2.847,2.847,0,0,1,293.6.041,2.847,2.847,0,0,1,291.51.9a2.985,2.985,0,0,1-2.132-.861,2.783,2.783,0,0,1-.9-2.091V-6.724a9.371,9.371,0,0,1-.82.9,22.8,22.8,0,0,1-7.421,5A22.727,22.727,0,0,1,271.42.9,23.031,23.031,0,0,1,262.564-.82a22.686,22.686,0,0,1-7.462-5,22.51,22.51,0,0,1-4.92-7.339,23.636,23.636,0,0,1-1.8-8.733v-.328a23.312,23.312,0,0,1,1.8-8.692,22.63,22.63,0,0,1,4.92-7.3,22.686,22.686,0,0,1,7.462-5,23.031,23.031,0,0,1,8.856-1.722,22.727,22.727,0,0,1,8.815,1.722,22.8,22.8,0,0,1,7.421,5,2.115,2.115,0,0,1,.451.41q.205.246.369.41ZM271.42-5a16.5,16.5,0,0,0,6.642-1.353A17.328,17.328,0,0,0,283.474-10a17.328,17.328,0,0,0,3.649-5.412,16.5,16.5,0,0,0,1.353-6.642,16.207,16.207,0,0,0-1.353-6.6,17.462,17.462,0,0,0-3.649-5.371,17.328,17.328,0,0,0-5.412-3.649,16.5,16.5,0,0,0-6.642-1.353,16.9,16.9,0,0,0-6.519,1.271,17.523,17.523,0,0,0-5.412,3.485,16.965,16.965,0,0,0-3.731,5.207,15.977,15.977,0,0,0-1.476,6.437v.656a16.207,16.207,0,0,0,1.353,6.6A17.112,17.112,0,0,0,259.325-10a17.839,17.839,0,0,0,5.453,3.649A16.5,16.5,0,0,0,271.42-5ZM323.08-22.55V-49.774a1.706,1.706,0,0,1,.082-.656,13.549,13.549,0,0,1,1.271-5.412,14.181,14.181,0,0,1,3.157-4.387,14.9,14.9,0,0,1,4.551-2.911,14.154,14.154,0,0,1,5.453-1.066h.082a13.759,13.759,0,0,1,5.576,1.148,14.839,14.839,0,0,1,4.592,3.116,14.839,14.839,0,0,1,3.116,4.592,13.759,13.759,0,0,1,1.148,5.576,14.429,14.429,0,0,1-.9,5,23.23,23.23,0,0,1,11.316,6.232,22.685,22.685,0,0,1,5,7.462,23.031,23.031,0,0,1,1.722,8.856v.082a22.727,22.727,0,0,1-1.722,8.815,22.8,22.8,0,0,1-5,7.421,24.337,24.337,0,0,1-7.5,5.043A22.267,22.267,0,0,1,346.2.9a22.564,22.564,0,0,1-8.856-1.763A24.194,24.194,0,0,1,329.8-5.9a22.8,22.8,0,0,1-5-7.421,22.727,22.727,0,0,1-1.722-8.815Zm14.514-35.588a8.072,8.072,0,0,0-3.239.656,8.507,8.507,0,0,0-2.665,1.8,8.507,8.507,0,0,0-1.8,2.665,8.072,8.072,0,0,0-.656,3.239,1.407,1.407,0,0,1-.082.574l.082,26.65v.082a.364.364,0,0,1-.041.164.364.364,0,0,0-.041.164,16.207,16.207,0,0,0,1.353,6.6,17.462,17.462,0,0,0,3.649,5.371,16.767,16.767,0,0,0,5.412,3.608A16.94,16.94,0,0,0,346.2-5.248a16.643,16.643,0,0,0,6.6-1.312,16.886,16.886,0,0,0,5.371-3.608,17.462,17.462,0,0,0,3.649-5.371,16.207,16.207,0,0,0,1.353-6.6v-.082a16.145,16.145,0,0,0-1.312-6.478,17.756,17.756,0,0,0-3.526-5.33,17.163,17.163,0,0,0-5.248-3.69,16.277,16.277,0,0,0-6.478-1.476.324.324,0,0,0-.2.041.324.324,0,0,1-.205.041,2.684,2.684,0,0,1-1.968-.82,2.8,2.8,0,0,1-1.066-2.624v-.082a3.164,3.164,0,0,1,.9-1.8,8.149,8.149,0,0,0,1.886-5.33,8.073,8.073,0,0,0-.656-3.239,8.878,8.878,0,0,0-1.763-2.665,8.03,8.03,0,0,0-2.624-1.8,8.072,8.072,0,0,0-3.239-.656ZM397.126.9a21.278,21.278,0,0,1-8.159-1.6,20.991,20.991,0,0,1-6.929-4.633,21.107,21.107,0,0,1-4.633-6.888,21.183,21.183,0,0,1-1.6-8.2V-42.066a2.847,2.847,0,0,1,.861-2.091,2.847,2.847,0,0,1,2.091-.861,2.847,2.847,0,0,1,2.091.861,2.847,2.847,0,0,1,.861,2.091v21.648a15.4,15.4,0,0,0,1.189,6.027,15.217,15.217,0,0,0,3.28,4.92,15.216,15.216,0,0,0,4.92,3.28A15.4,15.4,0,0,0,397.126-5a15.1,15.1,0,0,0,5.986-1.189,15.335,15.335,0,0,0,4.879-3.28,15.914,15.914,0,0,0,3.321-4.879,14.664,14.664,0,0,0,1.23-5.986v-21.73a2.847,2.847,0,0,1,.861-2.091,2.847,2.847,0,0,1,2.091-.861,2.847,2.847,0,0,1,2.091.861,2.847,2.847,0,0,1,.861,2.091v21.648a21.183,21.183,0,0,1-1.6,8.2,21.107,21.107,0,0,1-4.633,6.888A21.107,21.107,0,0,1,405.326-.7,21.183,21.183,0,0,1,397.126.9ZM427.712.656a2.783,2.783,0,0,1-2.091-.9,2.985,2.985,0,0,1-.861-2.132V-24.026a20.974,20.974,0,0,1,1.6-8.118,21.107,21.107,0,0,1,4.633-6.888,20.991,20.991,0,0,1,6.929-4.633,21.278,21.278,0,0,1,8.159-1.6,2.847,2.847,0,0,1,2.091.861,2.847,2.847,0,0,1,.861,2.091,2.847,2.847,0,0,1-.861,2.091,2.847,2.847,0,0,1-2.091.861,15.1,15.1,0,0,0-5.986,1.189,15.335,15.335,0,0,0-4.879,3.28,16.061,16.061,0,0,0-3.321,4.838,14.379,14.379,0,0,0-1.23,5.945v21.73A2.985,2.985,0,0,1,429.8-.246,2.783,2.783,0,0,1,427.712.656Zm48.626-28.7a2.847,2.847,0,0,1,2.091.861,2.847,2.847,0,0,1,.861,2.091v7.544a2.847,2.847,0,0,1-.861,2.091,2.847,2.847,0,0,1-2.091.861,2.847,2.847,0,0,1-2.091-.861,2.847,2.847,0,0,1-.861-2.091v-7.544a2.847,2.847,0,0,1,.861-2.091A2.847,2.847,0,0,1,476.338-28.044Zm17.056-14.022a2.783,2.783,0,0,1,.9-2.091,2.985,2.985,0,0,1,2.132-.861,2.847,2.847,0,0,1,2.091.861,2.847,2.847,0,0,1,.861,2.091V-2.05a2.847,2.847,0,0,1-.861,2.091A2.847,2.847,0,0,1,496.428.9,2.985,2.985,0,0,1,494.3.041a2.783,2.783,0,0,1-.9-2.091V-6.724a9.371,9.371,0,0,1-.82.9,22.8,22.8,0,0,1-7.421,5A22.727,22.727,0,0,1,476.338.9,23.03,23.03,0,0,1,467.482-.82a22.686,22.686,0,0,1-7.462-5,22.51,22.51,0,0,1-4.92-7.339,23.636,23.636,0,0,1-1.8-8.733v-.328a23.312,23.312,0,0,1,1.8-8.692,22.63,22.63,0,0,1,4.92-7.3,22.686,22.686,0,0,1,7.462-5,23.03,23.03,0,0,1,8.856-1.722,22.727,22.727,0,0,1,8.815,1.722,22.8,22.8,0,0,1,7.421,5,2.115,2.115,0,0,1,.451.41q.2.246.369.41ZM476.338-5a16.5,16.5,0,0,0,6.642-1.353A17.328,17.328,0,0,0,488.392-10a17.328,17.328,0,0,0,3.649-5.412,16.5,16.5,0,0,0,1.353-6.642,16.207,16.207,0,0,0-1.353-6.6,17.462,17.462,0,0,0-3.649-5.371,17.328,17.328,0,0,0-5.412-3.649,16.5,16.5,0,0,0-6.642-1.353,16.9,16.9,0,0,0-6.519,1.271,17.523,17.523,0,0,0-5.412,3.485,16.965,16.965,0,0,0-3.731,5.207,15.977,15.977,0,0,0-1.476,6.437v.656a16.207,16.207,0,0,0,1.353,6.6A17.112,17.112,0,0,0,464.243-10,17.839,17.839,0,0,0,469.7-6.355,16.5,16.5,0,0,0,476.338-5ZM530.622.82A23.031,23.031,0,0,1,521.766-.9a22.685,22.685,0,0,1-7.462-5,22.51,22.51,0,0,1-4.92-7.339,23.636,23.636,0,0,1-1.8-8.733V-22.3a23.442,23.442,0,0,1,1.8-8.651,22.51,22.51,0,0,1,4.92-7.339,22.685,22.685,0,0,1,7.462-5,23.031,23.031,0,0,1,8.856-1.722,2.847,2.847,0,0,1,2.091.861,2.847,2.847,0,0,1,.861,2.091,2.847,2.847,0,0,1-.861,2.091,2.847,2.847,0,0,1-2.091.861,16.5,16.5,0,0,0-6.642,1.353,17.839,17.839,0,0,0-5.453,3.649,17.113,17.113,0,0,0-3.69,5.371,16.207,16.207,0,0,0-1.353,6.6,16.5,16.5,0,0,0,1.353,6.642,16.985,16.985,0,0,0,3.69,5.412,17.839,17.839,0,0,0,5.453,3.649,16.5,16.5,0,0,0,6.642,1.353,16.5,16.5,0,0,0,6.642-1.353,17.328,17.328,0,0,0,5.412-3.649,17.328,17.328,0,0,0,3.649-5.412,16.5,16.5,0,0,0,1.353-6.642V-56.252a2.783,2.783,0,0,1,.9-2.091,2.985,2.985,0,0,1,2.132-.861,2.89,2.89,0,0,1,2.05.861,2.783,2.783,0,0,1,.9,2.091v34.276a23.636,23.636,0,0,1-1.8,8.733,21.915,21.915,0,0,1-5,7.339,22.8,22.8,0,0,1-7.421,5A22.727,22.727,0,0,1,530.622.82Zm52.152-28.864a2.847,2.847,0,0,1,2.091.861,2.847,2.847,0,0,1,.861,2.091v7.544a2.847,2.847,0,0,1-.861,2.091,2.847,2.847,0,0,1-2.091.861,2.847,2.847,0,0,1-2.091-.861,2.847,2.847,0,0,1-.861-2.091v-7.544a2.847,2.847,0,0,1,.861-2.091A2.847,2.847,0,0,1,582.774-28.044ZM599.83-42.066a2.783,2.783,0,0,1,.9-2.091,2.985,2.985,0,0,1,2.132-.861,2.847,2.847,0,0,1,2.091.861,2.847,2.847,0,0,1,.861,2.091V-2.05a2.847,2.847,0,0,1-.861,2.091A2.847,2.847,0,0,1,602.864.9a2.985,2.985,0,0,1-2.132-.861,2.783,2.783,0,0,1-.9-2.091V-6.724a9.375,9.375,0,0,1-.82.9,22.8,22.8,0,0,1-7.421,5A22.727,22.727,0,0,1,582.774.9,23.031,23.031,0,0,1,573.918-.82a22.687,22.687,0,0,1-7.462-5,22.51,22.51,0,0,1-4.92-7.339,23.635,23.635,0,0,1-1.8-8.733v-.328a23.31,23.31,0,0,1,1.8-8.692,22.63,22.63,0,0,1,4.92-7.3,22.687,22.687,0,0,1,7.462-5,23.031,23.031,0,0,1,8.856-1.722,22.727,22.727,0,0,1,8.815,1.722,22.8,22.8,0,0,1,7.421,5,2.115,2.115,0,0,1,.451.41q.2.246.369.41ZM582.774-5a16.5,16.5,0,0,0,6.642-1.353A17.328,17.328,0,0,0,594.828-10a17.327,17.327,0,0,0,3.649-5.412,16.5,16.5,0,0,0,1.353-6.642,16.206,16.206,0,0,0-1.353-6.6,17.461,17.461,0,0,0-3.649-5.371,17.328,17.328,0,0,0-5.412-3.649,16.5,16.5,0,0,0-6.642-1.353,16.9,16.9,0,0,0-6.519,1.271,17.522,17.522,0,0,0-5.412,3.485,16.964,16.964,0,0,0-3.731,5.207,15.978,15.978,0,0,0-1.476,6.437v.656a16.206,16.206,0,0,0,1.353,6.6A17.111,17.111,0,0,0,570.679-10a17.838,17.838,0,0,0,5.453,3.649A16.5,16.5,0,0,0,582.774-5Z" transform="translate(0.046 64.252)" fill="#fff"/></svg>