<svg xmlns="http://www.w3.org/2000/svg" xmlns:xlink="http://www.w3.org/1999/xlink" width="168.998" height="225.438" viewBox="0 0 168.998 225.438">
  <defs>
    <linearGradient id="linear-gradient" x1="0.009" y1="0.205" x2="0.807" y2="1.025" gradientUnits="objectBoundingBox">
      <stop offset="0" stop-color="#fff"/>
      <stop offset="1" stop-color="#fff"/>
    </linearGradient>
    <filter id="Subtraction_7" x="0" y="0" width="168.998" height="168.998" filterUnits="userSpaceOnUse">
      <feOffset input="SourceAlpha"/>
      <feGaussianBlur stdDeviation="3" result="blur"/>
      <feFlood flood-opacity="0.149"/>
      <feComposite operator="in" in2="blur"/>
      <feComposite in="SourceGraphic"/>
    </filter>
    <linearGradient id="linear-gradient-2" x1="0.5" x2="0.5" y2="1" gradientUnits="objectBoundingBox">
      <stop offset="0" stop-color="#c9c9c9"/>
      <stop offset="1" stop-color="#ff7e7e"/>
    </linearGradient>
    <linearGradient id="linear-gradient-3" x1="0.5" x2="0.5" y2="1" gradientUnits="objectBoundingBox">
      <stop offset="0" stop-color="#fff"/>
      <stop offset="1" stop-color="#ef9090"/>
    </linearGradient>
    <filter id="Path_619" x="37.001" y="138.998" width="95" height="68.3" filterUnits="userSpaceOnUse">
      <feOffset dy="5" input="SourceAlpha"/>
      <feGaussianBlur stdDeviation="3" result="blur-2"/>
      <feFlood flood-opacity="0.161"/>
      <feComposite operator="in" in2="blur-2"/>
      <feComposite in="SourceGraphic"/>
    </filter>
  </defs>
  <g id="Group_4591" data-name="Group 4591" transform="translate(-875 -439.002)">
    <path id="Path_9902" data-name="Path 9902" d="M0-11V-24.28a.832.832,0,0,1,.04-.32,6.61,6.61,0,0,1,.62-2.64A6.917,6.917,0,0,1,2.2-29.38,7.267,7.267,0,0,1,4.42-30.8a6.9,6.9,0,0,1,2.66-.52h.04a6.712,6.712,0,0,1,2.72.56,7.238,7.238,0,0,1,2.24,1.52A7.238,7.238,0,0,1,13.6-27a6.712,6.712,0,0,1,.56,2.72,7.038,7.038,0,0,1-.44,2.44,11.332,11.332,0,0,1,5.52,3.04,11.066,11.066,0,0,1,2.44,3.64,11.234,11.234,0,0,1,.84,4.32v.04a11.086,11.086,0,0,1-.84,4.3,11.124,11.124,0,0,1-2.44,3.62A11.872,11.872,0,0,1,15.58-.42a10.862,10.862,0,0,1-4.3.86A11.007,11.007,0,0,1,6.96-.42,11.8,11.8,0,0,1,3.28-2.88,11.124,11.124,0,0,1,.84-6.5,11.086,11.086,0,0,1,0-10.8ZM7.08-28.36a3.938,3.938,0,0,0-1.58.32,4.149,4.149,0,0,0-1.3.88,4.15,4.15,0,0,0-.88,1.3A3.938,3.938,0,0,0,3-24.28a.686.686,0,0,1-.04.28L3-11v.04a.178.178,0,0,1-.02.08.178.178,0,0,0-.02.08,7.906,7.906,0,0,0,.66,3.22A8.518,8.518,0,0,0,5.4-4.96,8.179,8.179,0,0,0,8.04-3.2a8.263,8.263,0,0,0,3.24.64A8.118,8.118,0,0,0,14.5-3.2a8.237,8.237,0,0,0,2.62-1.76A8.518,8.518,0,0,0,18.9-7.58a7.906,7.906,0,0,0,.66-3.22v-.04A7.875,7.875,0,0,0,18.92-14a8.661,8.661,0,0,0-1.72-2.6,8.372,8.372,0,0,0-2.56-1.8,7.94,7.94,0,0,0-3.16-.72.158.158,0,0,0-.1.02.158.158,0,0,1-.1.02,1.309,1.309,0,0,1-.96-.4,1.365,1.365,0,0,1-.52-1.28v-.04a1.543,1.543,0,0,1,.44-.88,3.975,3.975,0,0,0,.92-2.6,3.938,3.938,0,0,0-.32-1.58,4.331,4.331,0,0,0-.86-1.3,3.917,3.917,0,0,0-1.28-.88,3.938,3.938,0,0,0-1.58-.32ZM36.12.44a10.38,10.38,0,0,1-3.98-.78A10.24,10.24,0,0,1,28.76-2.6,10.3,10.3,0,0,1,26.5-5.96a10.333,10.333,0,0,1-.78-4V-20.52a1.389,1.389,0,0,1,.42-1.02,1.389,1.389,0,0,1,1.02-.42,1.389,1.389,0,0,1,1.02.42,1.389,1.389,0,0,1,.42,1.02V-9.96a7.51,7.51,0,0,0,.58,2.94,7.423,7.423,0,0,0,1.6,2.4,7.423,7.423,0,0,0,2.4,1.6,7.51,7.51,0,0,0,2.94.58,7.365,7.365,0,0,0,2.92-.58,7.48,7.48,0,0,0,2.38-1.6A7.763,7.763,0,0,0,43.04-7a7.153,7.153,0,0,0,.6-2.92v-10.6a1.389,1.389,0,0,1,.42-1.02,1.389,1.389,0,0,1,1.02-.42,1.389,1.389,0,0,1,1.02.42,1.389,1.389,0,0,1,.42,1.02V-9.96a10.333,10.333,0,0,1-.78,4A10.3,10.3,0,0,1,43.48-2.6,10.3,10.3,0,0,1,40.12-.34,10.333,10.333,0,0,1,36.12.44ZM51.04.32a1.358,1.358,0,0,1-1.02-.44,1.456,1.456,0,0,1-.42-1.04V-11.72a10.231,10.231,0,0,1,.78-3.96,10.3,10.3,0,0,1,2.26-3.36,10.24,10.24,0,0,1,3.38-2.26A10.38,10.38,0,0,1,60-22.08a1.389,1.389,0,0,1,1.02.42,1.389,1.389,0,0,1,.42,1.02,1.389,1.389,0,0,1-.42,1.02A1.389,1.389,0,0,1,60-19.2a7.365,7.365,0,0,0-2.92.58,7.48,7.48,0,0,0-2.38,1.6,7.835,7.835,0,0,0-1.62,2.36,7.014,7.014,0,0,0-.6,2.9v10.6a1.456,1.456,0,0,1-.42,1.04A1.357,1.357,0,0,1,51.04.32Zm23.72-14a1.389,1.389,0,0,1,1.02.42,1.389,1.389,0,0,1,.42,1.02v3.68a1.389,1.389,0,0,1-.42,1.02,1.389,1.389,0,0,1-1.02.42,1.389,1.389,0,0,1-1.02-.42,1.389,1.389,0,0,1-.42-1.02v-3.68a1.389,1.389,0,0,1,.42-1.02A1.389,1.389,0,0,1,74.76-13.68Zm8.32-6.84a1.357,1.357,0,0,1,.44-1.02,1.456,1.456,0,0,1,1.04-.42,1.389,1.389,0,0,1,1.02.42A1.389,1.389,0,0,1,86-20.52V-1A1.389,1.389,0,0,1,85.58.02a1.389,1.389,0,0,1-1.02.42A1.456,1.456,0,0,1,83.52.02,1.357,1.357,0,0,1,83.08-1V-3.28a4.57,4.57,0,0,1-.4.44A11.124,11.124,0,0,1,79.06-.4a11.086,11.086,0,0,1-4.3.84A11.234,11.234,0,0,1,70.44-.4,11.066,11.066,0,0,1,66.8-2.84a10.98,10.98,0,0,1-2.4-3.58,11.53,11.53,0,0,1-.88-4.26v-.16a11.371,11.371,0,0,1,.88-4.24,11.039,11.039,0,0,1,2.4-3.56,11.066,11.066,0,0,1,3.64-2.44,11.234,11.234,0,0,1,4.32-.84,11.086,11.086,0,0,1,4.3.84,11.124,11.124,0,0,1,3.62,2.44,1.032,1.032,0,0,1,.22.2q.1.12.18.2ZM74.76-2.44A8.046,8.046,0,0,0,78-3.1a8.453,8.453,0,0,0,2.64-1.78,8.453,8.453,0,0,0,1.78-2.64,8.046,8.046,0,0,0,.66-3.24,7.906,7.906,0,0,0-.66-3.22,8.518,8.518,0,0,0-1.78-2.62A8.453,8.453,0,0,0,78-18.38a8.046,8.046,0,0,0-3.24-.66,8.242,8.242,0,0,0-3.18.62,8.548,8.548,0,0,0-2.64,1.7,8.276,8.276,0,0,0-1.82,2.54,7.794,7.794,0,0,0-.72,3.14v.32a7.906,7.906,0,0,0,.66,3.22,8.347,8.347,0,0,0,1.8,2.62A8.7,8.7,0,0,0,71.52-3.1,8.046,8.046,0,0,0,74.76-2.44ZM101.24.4a11.234,11.234,0,0,1-4.32-.84,11.066,11.066,0,0,1-3.64-2.44,10.98,10.98,0,0,1-2.4-3.58A11.53,11.53,0,0,1,90-10.72v-.16a11.435,11.435,0,0,1,.88-4.22,10.98,10.98,0,0,1,2.4-3.58,11.066,11.066,0,0,1,3.64-2.44,11.234,11.234,0,0,1,4.32-.84,1.389,1.389,0,0,1,1.02.42,1.389,1.389,0,0,1,.42,1.02,1.389,1.389,0,0,1-.42,1.02,1.389,1.389,0,0,1-1.02.42,8.046,8.046,0,0,0-3.24.66,8.7,8.7,0,0,0-2.66,1.78,8.347,8.347,0,0,0-1.8,2.62,7.906,7.906,0,0,0-.66,3.22,8.046,8.046,0,0,0,.66,3.24,8.285,8.285,0,0,0,1.8,2.64A8.7,8.7,0,0,0,98-3.14a8.047,8.047,0,0,0,3.24.66,8.046,8.046,0,0,0,3.24-.66,8.453,8.453,0,0,0,2.64-1.78,8.453,8.453,0,0,0,1.78-2.64,8.047,8.047,0,0,0,.66-3.24V-27.44a1.357,1.357,0,0,1,.44-1.02,1.456,1.456,0,0,1,1.04-.42,1.41,1.41,0,0,1,1,.42,1.358,1.358,0,0,1,.44,1.02v16.72a11.53,11.53,0,0,1-.88,4.26,10.69,10.69,0,0,1-2.44,3.58,11.124,11.124,0,0,1-3.62,2.44A11.086,11.086,0,0,1,101.24.4Zm25.44-14.08a1.389,1.389,0,0,1,1.02.42,1.389,1.389,0,0,1,.42,1.02v3.68a1.389,1.389,0,0,1-.42,1.02,1.389,1.389,0,0,1-1.02.42,1.389,1.389,0,0,1-1.02-.42,1.389,1.389,0,0,1-.42-1.02v-3.68a1.389,1.389,0,0,1,.42-1.02A1.389,1.389,0,0,1,126.68-13.68ZM135-20.52a1.357,1.357,0,0,1,.44-1.02,1.456,1.456,0,0,1,1.04-.42,1.389,1.389,0,0,1,1.02.42,1.389,1.389,0,0,1,.42,1.02V-1A1.389,1.389,0,0,1,137.5.02a1.389,1.389,0,0,1-1.02.42,1.456,1.456,0,0,1-1.04-.42A1.357,1.357,0,0,1,135-1V-3.28a4.571,4.571,0,0,1-.4.44A11.124,11.124,0,0,1,130.98-.4a11.086,11.086,0,0,1-4.3.84,11.234,11.234,0,0,1-4.32-.84,11.066,11.066,0,0,1-3.64-2.44,10.98,10.98,0,0,1-2.4-3.58,11.53,11.53,0,0,1-.88-4.26v-.16a11.371,11.371,0,0,1,.88-4.24,11.039,11.039,0,0,1,2.4-3.56,11.066,11.066,0,0,1,3.64-2.44,11.234,11.234,0,0,1,4.32-.84,11.086,11.086,0,0,1,4.3.84,11.124,11.124,0,0,1,3.62,2.44,1.032,1.032,0,0,1,.22.2q.1.12.18.2ZM126.68-2.44a8.046,8.046,0,0,0,3.24-.66,8.453,8.453,0,0,0,2.64-1.78,8.452,8.452,0,0,0,1.78-2.64,8.046,8.046,0,0,0,.66-3.24,7.906,7.906,0,0,0-.66-3.22,8.518,8.518,0,0,0-1.78-2.62,8.453,8.453,0,0,0-2.64-1.78,8.046,8.046,0,0,0-3.24-.66,8.242,8.242,0,0,0-3.18.62,8.548,8.548,0,0,0-2.64,1.7,8.276,8.276,0,0,0-1.82,2.54,7.794,7.794,0,0,0-.72,3.14v.32a7.906,7.906,0,0,0,.66,3.22,8.347,8.347,0,0,0,1.8,2.62,8.7,8.7,0,0,0,2.66,1.78A8.047,8.047,0,0,0,126.68-2.44Z" transform="translate(891 664)" fill="#fff"/>
    <g id="Group_140" data-name="Group 140" transform="translate(3861.727 -67.271)">
      <g id="Group_140-2" data-name="Group 140" transform="translate(-2977.726 515.271)">
        <path id="Path_613" data-name="Path 613" d="M35.4,146,6.8,104.1l34.909,13.213Z" fill="#ebebeb"/>
        <path id="Path_614" data-name="Path 614" d="M115.6,146l28.7-41.9-34.953,12.567Z" fill="#ebebeb"/>
        <g id="Group_142" data-name="Group 142">
          <g transform="matrix(1, 0, 0, 1, -9, -9)" filter="url(#Subtraction_7)">
            <path id="Subtraction_7-2" data-name="Subtraction 7" d="M875.5-203a76.042,76.042,0,0,1-14.42-1.382,75.508,75.508,0,0,1-13.991-4.146,75.028,75.028,0,0,1-24.976-16.585,75.027,75.027,0,0,1-16.585-24.975,75.5,75.5,0,0,1-4.146-13.991A76.042,76.042,0,0,1,800-278.5a76.044,76.044,0,0,1,1.382-14.42,75.5,75.5,0,0,1,4.146-13.991,75.029,75.029,0,0,1,16.585-24.976,75.029,75.029,0,0,1,24.976-16.585,75.505,75.505,0,0,1,13.99-4.146A76.042,76.042,0,0,1,875.5-354a76.042,76.042,0,0,1,14.42,1.382,75.506,75.506,0,0,1,13.991,4.146,75.029,75.029,0,0,1,24.976,16.585,75.027,75.027,0,0,1,16.585,24.976,75.5,75.5,0,0,1,4.146,13.991A76.046,76.046,0,0,1,951-278.5a76.044,76.044,0,0,1-1.382,14.42,75.5,75.5,0,0,1-4.146,13.991,75.025,75.025,0,0,1-16.585,24.975,75.028,75.028,0,0,1-24.976,16.585,75.508,75.508,0,0,1-13.991,4.146A76.044,76.044,0,0,1,875.5-203Zm.022-128.02A52.184,52.184,0,0,0,823.1-280a52.443,52.443,0,0,0,23.1,45,51.57,51.57,0,0,0,27.9,8.9c.5.014,1,.021,1.48.021A52.185,52.185,0,0,0,928-277.1a52.7,52.7,0,0,0-10.8-33.4A52.741,52.741,0,0,0,877-331C876.508-331.013,876.01-331.02,875.521-331.02Z" transform="translate(-791 363)" fill="url(#linear-gradient)"/>
          </g>
          <path id="Path_615" data-name="Path 615" d="M75.5,6A69.5,69.5,0,1,1,6,75.5,69.608,69.608,0,0,1,75.5,6m0-6A75.5,75.5,0,1,0,151,75.5,75.5,75.5,0,0,0,75.5,0Z" opacity="0.4" fill="url(#linear-gradient-2)"/>
        </g>
        <path id="Path_618" data-name="Path 618" d="M114,134H37l-1.7,12h80.4Z" fill="#e8c7ca"/>
        <g transform="matrix(1, 0, 0, 1, -9, -9)" filter="url(#Path_619)">
          <path id="Path_619-2" data-name="Path 619" d="M37,134l38.5,50.3L114,134Z" transform="translate(9 9)" fill="url(#linear-gradient-3)"/>
        </g>
      </g>
      <path id="Subtraction_8" data-name="Subtraction 8" d="M-2889.114,274.225a41.66,41.66,0,0,1-41.613-41.612A41.66,41.66,0,0,1-2889.114,191a41.659,41.659,0,0,1,41.611,41.612A41.659,41.659,0,0,1-2889.114,274.225Zm.681-26.49h0a7.779,7.779,0,0,0,1.669.177c1.843,0,4.936-.679,4.936-5.225a30.587,30.587,0,0,1,1.083-7.4c.293-1.141.611-2.234.918-3.29l.005-.018a25.289,25.289,0,0,0,1.332-6.237,10.445,10.445,0,0,0-.919-4.971,7.059,7.059,0,0,0-1.851-2.165,3.718,3.718,0,0,0-2.4-.7,11.157,11.157,0,0,0-3.63.747h-2.271a11.138,11.138,0,0,0-3.629-.747,3.7,3.7,0,0,0-2.4.7,7.032,7.032,0,0,0-1.837,2.139,10.435,10.435,0,0,0-.936,4.988,25.23,25.23,0,0,0,1.324,6.217c.308,1.06.625,2.153.917,3.295a30.565,30.565,0,0,1,1.092,7.427c0,4.55,3.1,5.229,4.94,5.229a7.584,7.584,0,0,0,1.66-.177Zm10.976-26.008a15.033,15.033,0,0,1,.443,4.022,25.986,25.986,0,0,1-1.379,6.613l0,.012c-.368,1.263-.724,2.5-1.037,3.777a8.294,8.294,0,0,0-.219,2.579c.016.226.029.461.041.682a8.877,8.877,0,0,0,1.612,5.394,1.819,1.819,0,0,0,1.518.785,5.28,5.28,0,0,0,3.272-1.739,16.108,16.108,0,0,0,3.1-4.287c2.122-4.183,2.213-8.286.245-10.976a24,24,0,0,0-7.595-6.863h0Zm-21.929-.021h0a24.025,24.025,0,0,0-7.634,6.882c-1.969,2.691-1.877,6.8.246,10.98a16.1,16.1,0,0,0,3.1,4.285,5.278,5.278,0,0,0,3.271,1.738,1.817,1.817,0,0,0,1.519-.785,8.87,8.87,0,0,0,1.611-5.375c.014-.256.029-.52.049-.782a8.427,8.427,0,0,0-.232-2.663c-.307-1.233-.648-2.414-1-3.616a25.984,25.984,0,0,1-1.382-6.621,14.969,14.969,0,0,1,.447-4.043Zm10.958,22.091h0a5.541,5.541,0,0,1-1.6-.728,3.334,3.334,0,0,1-1.6-2.8c0-.949.244-1.391.77-1.391a3.429,3.429,0,0,1,1.291.444,3.117,3.117,0,0,0,1.139.4,3.112,3.112,0,0,0,1.137-.4,3.433,3.433,0,0,1,1.292-.445c.525,0,.77.442.77,1.391a3.333,3.333,0,0,1-1.6,2.805,5.594,5.594,0,0,1-1.6.726Zm4-12.019a2.276,2.276,0,0,1-2.272-2.274,2.276,2.276,0,0,1,2.272-2.274,2.276,2.276,0,0,1,2.271,2.274A2.276,2.276,0,0,1-2884.429,231.779Zm-7.949,0a2.276,2.276,0,0,1-2.272-2.274,2.276,2.276,0,0,1,2.272-2.274,2.276,2.276,0,0,1,2.271,2.274A2.276,2.276,0,0,1-2892.378,231.779Z" transform="translate(-13.285 358.088)" fill="#fff"/>
    </g>
  </g>
</svg>
